<?xml version="1.0" encoding="UTF-8"?>
<!--Generator: Apple Native CoreSVG 175.5-->
<!DOCTYPE svg PUBLIC "-//W3C//DTD SVG 1.1//EN" "http://www.w3.org/Graphics/SVG/1.1/DTD/svg11.dtd">
<svg version="1.1" xmlns="http://www.w3.org/2000/svg" xmlns:xlink="http://www.w3.org/1999/xlink" width="24.6533"
       height="26.8213">
       <g>
              <rect height="26.8213" opacity="0" width="24.6533" x="0" y="0" />
              <path d="M2.50488 26.8213L22.1484 26.8213C23.7158 26.8213 24.6533 26.0889 24.6533 24.873C24.6533 21.0938 19.9219 15.8789 12.3193 15.8789C4.73145 15.8789 0 21.0938 0 24.873C0 26.0889 0.9375 26.8213 2.50488 26.8213ZM12.334 13.2568C15.4688 13.2568 18.1934 10.4443 18.1934 6.78223C18.1934 3.16406 15.4688 0.483398 12.334 0.483398C9.19922 0.483398 6.47461 3.22266 6.47461 6.81152C6.47461 10.4443 9.18457 13.2568 12.334 13.2568Z"
                     fill="#fff" />
       </g>
</svg>